<?xml version="1.0" encoding="UTF-8"?>
<svg id="Layer_2" data-name="Layer 2" xmlns="http://www.w3.org/2000/svg" viewBox="0 0 281.68 66.28">
  <defs>
    <style>
      .cls-1, .cls-2 {
        fill: #7e9ba4;
      }

      .cls-2 {
        fill-rule: evenodd;
      }
    </style>
  </defs>
  <g id="Layer_14" data-name="Layer 14">
    <g>
      <g>
        <path class="cls-2" d="M168.87.09h6.17c.46,0,.84.37.84.84v31.61c0,.46.37.84.84.84h19.61c.46,0,.84.37.84.84v5.54c0,.46-.37.84-.84.84h-27.44c-.46,0-.84-.37-.84-.84V.93c0-.46.37-.84.84-.84Z"/>
        <path class="cls-2" d="M223.2,17.97l-11.31,22.28c-.14.28-.43.46-.74.46h-6.32c-.62,0-1.02-.65-.75-1.2L223.17.77c.31-.62,1.19-.62,1.5,0l18.87,38.58c.27.55-.13,1.2-.75,1.2h-6.72c-.32,0-.61-.18-.75-.47l-10.62-22.09c-.3-.62-1.18-.63-1.5-.02Z"/>
        <path class="cls-2" d="M273.8,26.05c2.57,4.42,5.19,8.81,7.76,13.23.32.56-.08,1.26-.73,1.26h-7.54c-.3,0-.57-.16-.72-.42-3.76-6.5-7.6-12.96-11.36-19.46-.32-.56.08-1.26.73-1.26,2.24,0,4.47,0,6.71,0,7.25-.02,6.79-11.74,0-11.94h-9.32c-.46,0-.84.37-.84.84v31.4c0,.46-.37.84-.84.84h-6.69c-.46,0-.84-.37-.84-.84V1c0-.46.37-.84.84-.84h7.53c3.5,0,6.82,0,10.92-.01,13.07.18,16.93,19.23,4.38,25.89"/>
        <path class="cls-2" d="M67.42,26.14c2.57,4.42,5.19,8.81,7.76,13.23.32.56-.08,1.26-.73,1.26h-7.54c-.3,0-.57-.16-.72-.42-3.76-6.5-7.6-12.96-11.36-19.46-.32-.56.08-1.26.73-1.26,2.24,0,4.47,0,6.71,0,7.25-.02,6.79-11.74,0-11.94h-9.32c-.46,0-.84.37-.84.84v31.4c0,.46-.37.84-.84.84h-6.69c-.46,0-.84-.37-.84-.84V1.09c0-.46.37-.84.84-.84h7.53c3.5,0,6.82,0,10.92-.01,13.07.18,16.93,19.23,4.38,25.89"/>
        <path class="cls-2" d="M.27,39.68v1.27h24.58c10.49.26,15.72-15.93,5.54-20.45-.55-.24-.68-.95-.25-1.37C36.8,12.62,31.26.27,21.85.27H.84C.37.27,0,.65,0,1.11l.27,38.57ZM8.93,8.22c0-.46.37-.84.84-.84h10.42c6.24,0,7.03,9.42,0,9.46-4.69.02-6.07,0-10.37,0-.46,0-.83-.37-.83-.83,0-2.61-.04-5.21-.05-7.78ZM8.98,32.52v-7.51c0-.46.37-.84.84-.84h12.93c7.08-.07,7.19,8.79,0,9.18h-12.92c-.46,0-.84-.37-.84-.84Z"/>
        <path class="cls-2" d="M140.41,16.44h10.19c13.74,0,15.25,23.67-1.14,23.87-.12,0-13.7,0-17.55,0-.52,0-.91-.48-.81-.99l1.03-5.37c.08-.39.42-.68.82-.68h16.95c5.57.01,4.87-9.2.31-9.22h-9.61c-14.35,0-15.91-23.3.96-24.05h12.66c.37,0,.69.24.8.59l1.68,5.38c.17.54-.23,1.08-.8,1.08h-14.17c-5.73-.09-5.22,9.34-1.33,9.39"/>
        <path class="cls-2" d="M104.08,17.97l-11.31,22.28c-.14.28-.43.46-.74.46h-6.32c-.62,0-1.02-.65-.75-1.2L104.05.77c.31-.62,1.19-.62,1.5,0l18.87,38.58c.27.55-.13,1.2-.75,1.2h-6.72c-.32,0-.61-.18-.75-.47l-10.62-22.09c-.3-.62-1.18-.63-1.5-.02Z"/>
      </g>
      <g>
        <path class="cls-1" d="M41.14,55.08v4.13h4.5v1.33h-4.5v4.25h5.03v1.33h-6.65v-12.37h6.65v1.33h-5.03Z"/>
        <path class="cls-1" d="M53.78,53v13.11h-1.61v-13.11h1.61Z"/>
        <path class="cls-1" d="M68.88,61.86h-7.76c.06.96.39,1.7.98,2.24.6.54,1.32.81,2.17.81.7,0,1.28-.16,1.75-.49.47-.32.79-.76.98-1.3h1.74c-.26.93-.78,1.69-1.56,2.28-.78.58-1.75.88-2.91.88-.92,0-1.75-.21-2.47-.62-.73-.41-1.3-1-1.71-1.76-.41-.76-.62-1.64-.62-2.65s.2-1.88.6-2.64c.4-.76.97-1.34,1.69-1.75.73-.41,1.56-.61,2.51-.61s1.74.2,2.45.6c.71.4,1.25.95,1.64,1.66.38.7.58,1.5.58,2.38,0,.31-.02.63-.05.97ZM66.86,58.97c-.27-.44-.64-.78-1.11-1.01-.47-.23-.98-.35-1.55-.35-.81,0-1.51.26-2.08.78-.57.52-.9,1.24-.98,2.16h6.13c0-.61-.14-1.14-.41-1.59Z"/>
        <path class="cls-1" d="M76.57,57.73v5.72c0,.47.1.81.3,1,.2.19.55.29,1.05.29h1.19v1.36h-1.45c-.9,0-1.57-.21-2.02-.62-.45-.41-.67-1.09-.67-2.04v-5.72h-1.26v-1.33h1.26v-2.45h1.61v2.45h2.53v1.33h-2.53Z"/>
        <path class="cls-1" d="M87.42,56.69c.53-.31,1.17-.46,1.92-.46v1.67h-.43c-1.81,0-2.71.98-2.71,2.94v5.28h-1.61v-9.71h1.61v1.58c.28-.56.69-.99,1.21-1.29Z"/>
        <path class="cls-1" d="M96.51,65.65c-.74-.41-1.32-1-1.74-1.76-.42-.76-.63-1.64-.63-2.65s.22-1.87.65-2.63c.43-.76,1.02-1.35,1.76-1.75.74-.41,1.58-.61,2.5-.61s1.75.2,2.5.61c.74.41,1.33.99,1.76,1.75.43.76.65,1.64.65,2.64s-.22,1.89-.66,2.65c-.44.76-1.04,1.35-1.8,1.76-.76.41-1.59.62-2.52.62s-1.73-.21-2.47-.62ZM100.61,64.45c.51-.27.92-.68,1.23-1.22.31-.54.47-1.2.47-1.98s-.15-1.44-.46-1.98c-.31-.54-.71-.95-1.21-1.21-.5-.27-1.03-.4-1.61-.4s-1.13.13-1.62.4c-.49.27-.88.67-1.18,1.21-.3.54-.44,1.21-.44,1.98s.14,1.46.43,2c.29.54.68.95,1.16,1.21.48.27,1.02.4,1.59.4s1.12-.14,1.63-.41Z"/>
        <path class="cls-1" d="M109.63,58.61c.4-.75.95-1.33,1.66-1.75.7-.41,1.49-.62,2.37-.62.76,0,1.46.17,2.11.52.65.35,1.15.81,1.49,1.37v-5.14h1.63v13.11h-1.63v-1.83c-.32.58-.79,1.05-1.42,1.43-.63.37-1.36.56-2.2.56s-1.65-.21-2.35-.64c-.7-.43-1.26-1.02-1.66-1.79-.4-.77-.6-1.64-.6-2.62s.2-1.86.6-2.61ZM116.81,59.33c-.3-.54-.69-.96-1.2-1.25-.5-.29-1.05-.43-1.66-.43s-1.15.14-1.65.43c-.5.28-.89.7-1.19,1.24-.3.54-.44,1.18-.44,1.91s.15,1.39.44,1.94c.29.55.69.97,1.19,1.26.5.29,1.05.43,1.65.43s1.15-.14,1.66-.43c.5-.29.9-.71,1.2-1.26.3-.55.44-1.19.44-1.92s-.15-1.37-.44-1.91Z"/>
        <path class="cls-1" d="M126.92,65.65c-.74-.41-1.32-1-1.74-1.76-.42-.76-.63-1.64-.63-2.65s.22-1.87.65-2.63c.43-.76,1.02-1.35,1.76-1.75.74-.41,1.58-.61,2.5-.61s1.75.2,2.5.61c.74.41,1.33.99,1.76,1.75.43.76.65,1.64.65,2.64s-.22,1.89-.66,2.65c-.44.76-1.04,1.35-1.8,1.76-.76.41-1.59.62-2.52.62s-1.73-.21-2.47-.62ZM131.02,64.45c.51-.27.92-.68,1.23-1.22.31-.54.47-1.2.47-1.98s-.15-1.44-.46-1.98c-.31-.54-.71-.95-1.21-1.21-.5-.27-1.03-.4-1.61-.4s-1.13.13-1.62.4c-.49.27-.88.67-1.18,1.21-.3.54-.44,1.21-.44,1.98s.14,1.46.43,2c.29.54.68.95,1.16,1.21.48.27,1.02.4,1.59.4s1.12-.14,1.63-.41Z"/>
        <path class="cls-1" d="M153.74,56.7c.59.31,1.06.78,1.4,1.41.34.63.51,1.39.51,2.29v5.72h-1.59v-5.49c0-.97-.24-1.71-.72-2.22-.48-.51-1.12-.77-1.94-.77s-1.51.27-2,.81-.74,1.31-.74,2.33v5.35h-1.59v-5.49c0-.97-.24-1.71-.72-2.22-.48-.51-1.12-.77-1.94-.77s-1.51.27-2,.81-.74,1.31-.74,2.33v5.35h-1.61v-9.71h1.61v1.4c.32-.51.75-.9,1.28-1.17.54-.27,1.13-.41,1.78-.41.82,0,1.54.18,2.16.55.63.37,1.09.9,1.4,1.61.27-.69.72-1.22,1.35-1.59.63-.38,1.32-.57,2.09-.57s1.43.16,2.02.47Z"/>
        <path class="cls-1" d="M167.7,53.66l-3.77,2.02v-1.2l3.77-2.22v1.4ZM170.64,61.86h-7.76c.06.96.39,1.7.98,2.24.6.54,1.32.81,2.17.81.7,0,1.28-.16,1.75-.49.47-.32.79-.76.98-1.3h1.74c-.26.93-.78,1.69-1.56,2.28-.78.58-1.75.88-2.91.88-.92,0-1.75-.21-2.47-.62-.73-.41-1.3-1-1.71-1.76-.41-.76-.62-1.64-.62-2.65s.2-1.88.6-2.64c.4-.76.97-1.34,1.69-1.75.73-.41,1.56-.61,2.51-.61s1.74.2,2.45.6c.71.4,1.25.95,1.64,1.66.38.7.58,1.5.58,2.38,0,.31-.02.63-.05.97ZM168.62,58.97c-.27-.44-.64-.78-1.11-1.01-.47-.23-.98-.35-1.55-.35-.81,0-1.51.26-2.08.78-.57.52-.9,1.24-.98,2.16h6.13c0-.61-.14-1.14-.41-1.59Z"/>
        <path class="cls-1" d="M177.8,65.89c-.59-.25-1.06-.61-1.4-1.06-.34-.45-.53-.98-.57-1.57h1.67c.05.48.27.88.68,1.19.41.31.94.46,1.6.46.61,0,1.1-.14,1.45-.41.35-.27.53-.61.53-1.03s-.19-.74-.57-.95c-.38-.21-.96-.41-1.75-.61-.72-.19-1.31-.38-1.76-.58-.46-.19-.84-.48-1.17-.87-.33-.38-.49-.89-.49-1.52,0-.5.15-.95.44-1.36s.71-.74,1.26-.98c.54-.24,1.16-.36,1.86-.36,1.08,0,1.94.27,2.6.81.66.54,1.02,1.29,1.06,2.23h-1.61c-.04-.51-.24-.92-.61-1.22s-.87-.46-1.5-.46c-.58,0-1.04.12-1.38.37-.34.25-.51.57-.51.97,0,.32.1.58.31.79.21.21.47.37.78.5s.75.26,1.3.42c.7.19,1.26.38,1.7.56.44.18.81.46,1.12.82s.48.84.49,1.44c0,.53-.15,1.01-.44,1.44-.3.43-.71.76-1.25,1-.54.24-1.15.36-1.85.36-.74,0-1.41-.13-2-.38Z"/>
        <path class="cls-1" d="M191.13,57.73v5.72c0,.47.1.81.3,1,.2.19.55.29,1.05.29h1.19v1.36h-1.45c-.9,0-1.57-.21-2.02-.62-.45-.41-.67-1.09-.67-2.04v-5.72h-1.26v-1.33h1.26v-2.45h1.61v2.45h2.53v1.33h-2.53Z"/>
        <path class="cls-1" d="M199.21,54.51c-.21-.21-.32-.47-.32-.78s.11-.57.32-.78c.21-.21.47-.32.78-.32s.55.11.75.32c.21.21.31.47.31.78s-.1.57-.31.78c-.21.21-.46.32-.75.32s-.57-.11-.78-.32ZM200.77,56.4v9.71h-1.61v-9.71h1.61Z"/>
        <path class="cls-1" d="M207.06,58.61c.4-.75.96-1.33,1.67-1.75s1.53-.62,2.45-.62c1.19,0,2.18.29,2.95.87.77.58,1.28,1.38,1.53,2.41h-1.74c-.17-.59-.49-1.06-.97-1.4s-1.07-.51-1.78-.51c-.92,0-1.67.32-2.23.95-.57.63-.85,1.53-.85,2.68s.28,2.07.85,2.71c.57.64,1.31.96,2.23.96.71,0,1.3-.17,1.77-.5.47-.33.8-.8.98-1.42h1.74c-.26.99-.78,1.79-1.56,2.38-.78.6-1.75.9-2.92.9-.92,0-1.74-.21-2.45-.62-.71-.41-1.27-1-1.67-1.75-.4-.76-.6-1.64-.6-2.66s.2-1.88.6-2.63Z"/>
        <path class="cls-1" d="M223.12,65.65c-.74-.41-1.32-1-1.74-1.76-.42-.76-.63-1.64-.63-2.65s.22-1.87.65-2.63c.43-.76,1.02-1.35,1.76-1.75.74-.41,1.58-.61,2.5-.61s1.75.2,2.5.61c.74.41,1.33.99,1.76,1.75.43.76.65,1.64.65,2.64s-.22,1.89-.66,2.65c-.44.76-1.04,1.35-1.8,1.76-.76.41-1.59.62-2.52.62s-1.73-.21-2.47-.62ZM227.22,64.45c.51-.27.92-.68,1.23-1.22.31-.54.47-1.2.47-1.98s-.15-1.44-.46-1.98c-.31-.54-.71-.95-1.21-1.21-.5-.27-1.03-.4-1.61-.4s-1.13.13-1.62.4c-.49.27-.88.67-1.18,1.21-.3.54-.44,1.21-.44,1.98s.14,1.46.43,2c.29.54.68.95,1.16,1.21.48.27,1.02.4,1.59.4s1.12-.14,1.63-.41Z"/>
        <path class="cls-1" d="M237.68,65.89c-.59-.25-1.06-.61-1.4-1.06-.34-.45-.53-.98-.57-1.57h1.67c.05.48.27.88.68,1.19.41.31.94.46,1.6.46.61,0,1.1-.14,1.45-.41.35-.27.53-.61.53-1.03s-.19-.74-.57-.95c-.38-.21-.96-.41-1.75-.61-.72-.19-1.31-.38-1.76-.58-.46-.19-.84-.48-1.17-.87-.33-.38-.49-.89-.49-1.52,0-.5.15-.95.44-1.36s.71-.74,1.26-.98c.54-.24,1.16-.36,1.86-.36,1.08,0,1.94.27,2.6.81.66.54,1.02,1.29,1.06,2.23h-1.61c-.04-.51-.24-.92-.61-1.22s-.87-.46-1.5-.46c-.58,0-1.04.12-1.38.37-.34.25-.51.57-.51.97,0,.32.1.58.31.79.21.21.47.37.78.5s.75.26,1.3.42c.7.19,1.26.38,1.7.56.44.18.81.46,1.12.82s.48.84.49,1.44c0,.53-.15,1.01-.44,1.44-.3.43-.71.76-1.25,1-.54.24-1.15.36-1.85.36-.74,0-1.41-.13-2-.38Z"/>
      </g>
    </g>
  </g>
</svg>